<svg width="21" height="20" viewBox="0 0 21 20" fill="none" xmlns="http://www.w3.org/2000/svg">
<path fill-rule="evenodd" clip-rule="evenodd" d="M9.85749 6.3379C10.3756 5.63969 10.5614 4.90384 9.97542 4.25431C8.66046 2.41433 7.77612 1.27649 7.22142 0.728537C6.16686 -0.313196 4.43209 -0.172285 3.51877 0.727647C3.02821 1.21101 2.86214 1.377 2.35844 1.88861C-0.447208 4.69577 1.26382 10.63 5.81237 15.183C10.3599 19.735 16.2935 21.4469 19.1051 18.6338C19.5699 18.1858 19.9634 17.792 20.2738 17.464C21.1688 16.518 21.3047 14.8597 20.2679 13.7824C19.7363 13.2301 18.6513 12.3885 16.7339 11.0169C16.1467 10.4918 15.4504 10.6056 14.812 11.0244C14.5049 11.2259 14.2815 11.4297 13.8595 11.8521L13.0933 12.6187C12.9924 12.7197 11.622 12.0334 10.2917 10.7018C8.96069 9.36953 8.27487 7.99906 8.37532 7.89862L9.1421 7.13142C9.27597 6.99742 9.33997 6.93254 9.42206 6.84627C9.59306 6.66654 9.73465 6.50344 9.85749 6.3379ZM14.5067 14.0329L15.2731 13.2661C15.5053 13.0337 15.6558 12.8907 15.7783 12.7922C17.4579 13.9984 18.4307 14.7568 18.828 15.1697C19.0666 15.4176 19.0295 15.8699 18.8221 16.089C18.5352 16.3924 18.1623 16.7655 17.7047 17.2068C15.8867 19.0256 11.0969 17.6437 7.22611 13.7691C3.35412 9.89332 1.97286 5.10279 3.77717 3.29748C4.27884 2.78798 4.43778 2.62912 4.92133 2.15265C5.10264 1.97401 5.5965 1.93389 5.81705 2.15176C6.24412 2.57364 7.03632 3.58799 8.20169 5.21133C8.14136 5.28623 8.06601 5.37087 7.97431 5.46724C7.90701 5.53798 7.85094 5.59481 7.72836 5.71751L6.96234 6.48396C5.65919 7.787 6.769 10.0047 8.87795 12.1157C10.9855 14.2253 13.204 15.3364 14.5067 14.0329Z" fill="black"/>
</svg>